#!OML:ASF E:\Steps\Project 1\Capture day 1\Session 2\Subject.ASF
:FULLY-SPECIFIED
:DEGREES
369
root 9.16713 16.1119 15.6318 -158.119 4.05297 178.766
lowerback -25.0254 -0.42691 -6.32011
upperback 0.495297 1.60673 -0.332398
thorax 14.5449 0.363074 3.86931
lowerneck -3.53317 -2.7476 -0.780252
upperneck 16.2892 -3.14489 1.60042
head 5.52513 -1.16126 0.47729
rclavicle -3.97569e-015 2.34566e-014
rhumerus -28.2361 -13.43 -81.1142
rradius 35.4116
rwrist -5.33613
rhand -9.60172 -50.6665
rfingers 7.12502
rthumb 16.3672 -79.9959
lclavicle -3.97569e-015 2.34566e-014
lhumerus -33.5243 11.2689 76.4259
lradius 16.5554
lwrist -12.9408
lhand -19.1293 -13.4321
lfingers 7.12502
lthumb 7.18031 16.4261
rfemur -15.6409 2.98558 23.4017
rtibia 7.79465
rfoot -22.5488 -0.72079
rtoes -36.2406
lfemur -47.2577 -6.7757 -15.4267
ltibia 21.8494
lfoot -4.34374 5.93188
ltoes -34.1419
370
root 9.17336 16.0952 15.515 -158.076 4.16998 178.862
lowerback -25.1581 -0.368354 -6.2567
upperback 0.486926 1.67483 -0.317888
thorax 14.6034 0.395996 3.87825
lowerneck -3.35687 -2.70136 -0.961865
upperneck 16.0304 -3.10471 1.78905
head 5.41985 -1.14864 0.570622
rclavicle 6.80837e-015 -3.97569e-015
rhumerus -28.1058 -12.9753 -81.2476
rradius 35.7037
rwrist -5.32568
rhand -9.51531 -51.1198
rfingers 7.12502
rthumb 16.4503 -80.4423
lclavicle 6.80837e-015 -3.97569e-015
lhumerus -33.7003 11.826 76.097
lradius 16.3391
lwrist -13.0738
lhand -18.8049 -13.4622
lfingers 7.12502
lthumb 7.49347 16.385
rfemur -15.372 2.96848 23.5242
rtibia 8.09371
rfoot -22.8641 -0.827293
rtoes -37.0104
lfemur -46.9033 -7.137 -14.8887
ltibia 19.5751
lfoot -4.07705 5.78195
ltoes -33.7658
371
root 9.17879 16.0808 15.3983 -158.077 4.26735 178.849
lowerback -25.2347 -0.331964 -6.28387
upperback 0.488989 1.74395 -0.351199
thorax 14.6423 0.425688 3.88282
lowerneck -3.43306 -2.66361 -0.915429
upperneck 16.0069 -3.05429 1.72413
head 5.42305 -1.12815 0.544569
rclavicle -6.4605e-016 7.35503e-015
rhumerus -27.9731 -12.58 -81.3769
rradius 35.9941
rwrist -5.35087
rhand -9.5066 -51.0765
rfingers 7.12502
rthumb 16.4587 -80.3983
lclavicle -6.4605e-016 7.35503e-015
lhumerus -33.8893 12.1339 75.8662
lradius 16.2272
lwrist -13.1841
lhand -18.8291 -13.5206
lfingers 7.12502
lthumb 7.47013 16.3275
rfemur -14.9836 3.26775 23.4724
rtibia 8.21526
rfoot -23.0319 -1.22638
rtoes -36.8944
lfemur -46.5344 -7.4047 -14.6012
ltibia 17.5652
lfoot -3.89016 5.62117
ltoes -33.5476
372
root 9.18086 16.0655 15.2792 -158.097 4.37764 178.773
lowerback -25.1811 -0.273677 -6.37193
upperback 0.425316 1.85521 -0.406189
thorax 14.5233 0.481054 3.90829
lowerneck -3.72342 -1.63309 -0.88968
upperneck 16.2793 -3.26413 1.75826
head 5.5593 -1.85344 0.473511
rclavicle 7.40473e-015 6.16232e-015
rhumerus -27.9296 -12.4084 -81.4333
rradius 36.1727
rwrist -5.30261
rhand -9.47799 -51.2962
rfingers 7.12502
rthumb 16.4863 -80.6158
lclavicle 7.40473e-015 6.16232e-015
lhumerus -34.0947 12.3088 75.6939
lradius 16.0484
lwrist -13.5696
lhand -19.0933 -13.5782
lfingers 7.12502
lthumb 7.21509 16.2788
rfemur -14.5159 3.53582 23.3301
rtibia 8.23367
rfoot -23.4651 -0.779298
rtoes -35.5001
lfemur -46.2307 -7.48861 -14.6219
ltibia 15.9404
lfoot -3.59545 5.33534
ltoes -34.1297
373
root 9.18241 16.0483 15.1567 -158.174 4.39097 178.747
lowerback -24.8838 -0.273841 -6.51388
upperback 0.237439 1.86765 -0.34457
thorax 14.1234 0.499687 4.05474
lowerneck -3.52152 -1.581 -1.01461
upperneck 16.2239 -3.17003 1.65862
head 5.50615 -1.82545 0.471551
rclavicle -1.09332e-015 0
rhumerus -28.105 -12.1536 -81.3201
rradius 36.2856
rwrist -5.32511
rhand -9.5248 -51.6424
rfingers 7.12502
rthumb 16.4412 -80.9657
lclavicle -1.09332e-015 0
lhumerus -34.5567 12.8913 75.4242
lradius 15.8347
lwrist -14.1861
lhand -19.0386 -13.4873
lfingers 7.12502
lthumb 7.26794 16.3679
rfemur -14.0262 3.63529 23.3245
rtibia 8.45473
rfoot -23.5942 -1.19968
rtoes -35.4027
lfemur -45.8835 -7.85138 -14.4861
ltibia 14.556
lfoot -3.28109 5.36172
ltoes -34.7953
374
root 9.18484 16.0327 15.035 -158.198 4.36727 178.76
lowerback -25.4997 -0.222112 -6.36642
upperback 0.568699 1.95467 -0.458602
thorax 14.8674 0.507771 3.89189
lowerneck -3.75235 -1.60986 -0.946412
upperneck 16.2969 -3.23038 1.79357
head 5.57062 -1.83672 0.495527
rclavicle 1.799e-014 -4.17448e-015
rhumerus -27.4049 -12.1132 -81.6159
rradius 36.361
rwrist -5.37667
rhand -9.64925 -51.5736
rfingers 7.12502
rthumb 16.3214 -80.9067
lclavicle 1.799e-014 -4.17448e-015
lhumerus -34.0337 13.8432 74.9344
lradius 15.4172
lwrist -14.9196
lhand -18.6317 -13.667
lfingers 7.12502
lthumb 7.66069 16.1743
rfemur -13.6899 3.68452 23.3821
rtibia 8.89093
rfoot -23.8787 -1.65413
rtoes -36.3025
lfemur -45.6028 -8.17779 -14.3489
ltibia 13.494
lfoot -3.12746 5.54221
ltoes -35.3084
375
root 9.18573 16.0175 14.9107 -158.168 4.43551 178.716
lowerback -25.1335 -0.172494 -6.34215
upperback 0.234509 2.01534 -0.576664
thorax 14.2589 0.588669 3.74963
lowerneck -3.56483 -1.85303 -1.14965
upperneck 16.2525 -3.63843 2.28186
head 5.5431 -2.02325 0.659433
rclavicle 7.8023e-015 -1.70955e-014
rhumerus -27.9372 -11.8923 -81.685
rradius 36.6439
rwrist -5.4789
rhand -9.81333 -51.3951
rfingers 7.12502
rthumb 16.1634 -80.7412
lclavicle 7.8023e-015 -1.70955e-014
lhumerus -34.585 14.2988 74.2517
lradius 15.1104
lwrist -15.431
lhand -18.4129 -13.7979
lfingers 7.12502
lthumb 7.87179 16.0355
rfemur -13.4602 3.62855 23.3454
rtibia 9.36475
rfoot -24.1821 -1.96205
rtoes -37.4947
lfemur -45.4524 -7.96729 -14.7023
ltibia 12.8968
lfoot -3.22267 5.47287
ltoes -36.5339
376
root 9.18338 15.9991 14.7803 -158.172 4.47614 178.673
lowerback -25.4218 -0.0978797 -6.36951
upperback 0.309731 2.15608 -0.631037
thorax 14.4981 0.640209 3.76365
lowerneck -3.63767 -1.73218 -1.00026
upperneck 16.1454 -3.44673 2.19381
head 5.51477 -1.91896 0.619113
rclavicle 5.06901e-015 -1.78906e-015
rhumerus -27.8317 -11.966 -81.6983
rradius 36.7288
rwrist -5.51004
rhand -9.92002 -51.0464
rfingers 7.12502
rthumb 16.0607 -80.4007
lclavicle 5.06901e-015 -1.78906e-015
lhumerus -34.3931 14.5969 74.0681
lradius 14.6835
lwrist -15.8653
lhand -18.6576 -13.6306
lfingers 7.12502
lthumb 7.63567 16.2115
rfemur -13.1049 3.58301 23.3047
rtibia 9.67686
rfoot -24.3939 -2.14562
rtoes -37.7575
lfemur -45.2456 -7.72705 -15.1778
ltibia 12.4834
lfoot -3.47321 5.48085
ltoes -36.9893
377
root 9.18292 15.9796 14.6516 -158.164 4.54264 178.631
lowerback -25.7777 -0.0417816 -6.40211
upperback 0.410297 2.28238 -0.697609
thorax 14.8087 0.68109 3.76466
lowerneck -3.6312 -1.77404 -0.911903
upperneck 15.9544 -3.46972 2.10879
head 5.45181 -1.92294 0.578829
rclavicle -2.15681e-014 -7.15625e-015
rhumerus -27.6772 -12.0843 -81.7157
rradius 36.8396
rwrist -5.14998
rhand -9.1422 -51.246
rfingers 7.12502
rthumb 16.8095 -80.5384
lclavicle -2.15681e-014 -7.15625e-015
lhumerus -34.1917 14.5104 74.0746
lradius 14.3972
lwrist -15.9379
lhand -18.9625 -13.5804
lfingers 7.12502
lthumb 7.34134 16.2723
rfemur -12.7758 3.7838 23.2455
rtibia 9.97404
rfoot -24.5843 -2.2383
rtoes -36.9083
lfemur -45.0091 -7.62531 -15.5492
ltibia 12.2487
lfoot -3.69362 5.66955
ltoes -36.6365
378
root 9.18416 15.9632 14.526 -158.172 4.58132 178.488
lowerback -26.1712 -0.0423925 -6.53899
upperback 0.565886 2.374 -0.787325
thorax 15.21 0.692883 3.78814
lowerneck -3.76487 -1.79383 -0.767054
upperneck 16.0954 -3.5035 2.0055
head 5.51516 -1.9376 0.51767
rclavicle 6.90777e-015 -4.25399e-014
rhumerus -27.4474 -12.3729 -81.6856
rradius 37.0227
rwrist -4.19981
rhand -7.30946 -53.2416
rfingers 7.12502
rthumb 18.5732 -82.3749
lclavicle 6.90777e-015 -4.25399e-014
lhumerus -33.9409 15.0944 73.736
lradius 14.0106
lwrist -16.7111
lhand -19.0517 -13.7125
lfingers 7.12502
lthumb 7.25528 16.1431
rfemur -12.5141 4.00513 23.079
rtibia 10.4636
rfoot -24.8555 -2.44598
rtoes -36.3921
lfemur -44.8023 -7.64265 -15.9958
ltibia 12.2832
lfoot -3.75543 5.89915
ltoes -36.7965
379
root 9.1841 15.9491 14.4005 -158.173 4.51079 178.371
lowerback -25.429 -0.080168 -6.64744
upperback 0.0520464 2.3222 -0.862269
thorax 14.1794 0.740945 3.71545
lowerneck -3.60418 -1.76349 -0.761112
upperneck 16.4383 -3.51363 1.94191
head 5.59348 -1.96527 0.494261
rclavicle -1.93815e-015 -2.78299e-015
rhumerus -28.3203 -12.3279 -81.5445
rradius 37.3799
rwrist -3.32696
rhand -4.43978 -60.6598
rfingers 7.12502
rthumb 21.3316 -89.5057
lclavicle -1.93815e-015 -2.78299e-015
lhumerus -34.7836 15.8751 72.8448
lradius 13.6214
lwrist -18.0159
lhand -18.9789 -13.7034
lfingers 7.12502
lthumb 7.32552 16.1498
rfemur -12.2664 4.14201 22.9583
rtibia 11.0623
rfoot -25.1222 -2.72457
rtoes -36.4051
lfemur -44.6811 -7.71065 -16.3992
ltibia 12.5743
lfoot -3.71824 6.02146
ltoes -36.5169
380
root 9.18232 15.9345 14.2686 -158.138 4.49287 178.327
lowerback -25.9436 -0.0867976 -6.67431
upperback 0.308785 2.36529 -0.876272
thorax 14.7721 0.719898 3.74988
lowerneck -3.85127 -1.77053 -0.893012
upperneck 15.9366 -3.4166 1.94475
head 5.47997 -1.89645 0.525563
rclavicle 6.60959e-015 -4.37326e-015
rhumerus -27.8044 -12.2167 -81.657
rradius 37.6711
rwrist -2.8046
rhand -3.30913 -65.6109
rfingers 7.12502
rthumb 22.4173 -265.67
lclavicle 6.60959e-015 -4.37326e-015
lhumerus -34.2965 17.1143 72.416
lradius 13.112
lwrist -19.2993
lhand -18.9886 -13.674
lfingers 7.12502
lthumb 7.31616 16.1795
rfemur -12.0289 4.43409 22.903
rtibia 11.6241
rfoot -25.3615 -3.13044
rtoes -36.9496
lfemur -44.5603 -7.73021 -16.7368
ltibia 13.0266
lfoot -3.70716 6.07437
ltoes -36.0823
381
root 9.17652 15.9204 14.1288 -158.152 4.52411 178.281
lowerback -25.8752 -0.0620597 -6.73089
upperback 0.0692237 2.43153 -0.931767
thorax 14.44 0.779252 3.73895
lowerneck -3.64895 -1.75346 -0.830348
upperneck 16.2169 -3.49017 2.14969
head 5.53643 -1.93452 0.573864
rclavicle -2.78299e-015 1.19271e-015
rhumerus -28.4143 -12.005 -81.6684
rradius 38.2185
rwrist -2.69488
rhand -3.40042 -68.9018
rfingers 7.12502
rthumb 22.3296 -262.368
lclavicle -2.78299e-015 1.19271e-015
lhumerus -34.7379 17.2835 72.0199
lradius 12.8701
lwrist -19.6146
lhand -19.0055 -13.7421
lfingers 7.12502
lthumb 7.29982 16.112
rfemur -11.7215 4.68314 22.8466
rtibia 12.1644
rfoot -25.5746 -3.72377
rtoes -37.6717
lfemur -44.2518 -7.69457 -17.1808
ltibia 13.4151
lfoot -3.57375 6.02475
ltoes -34.8621
382
root 9.16999 15.9098 13.9903 -158.187 4.49314 178.287
lowerback -26.1482 -0.0270095 -6.7318
upperback 0.111673 2.50848 -0.950743
thorax 14.6371 0.805035 3.75613
lowerneck -3.55083 -1.79662 -0.828096
upperneck 16.0406 -3.54948 2.2624
head 5.46767 -1.95341 0.608133
rclavicle -5.1684e-015 -3.65764e-014
rhumerus -28.6013 -12.0241 -81.7061
rradius 38.5861
rwrist -3.08578
rhand -4.40908 -69.7673
rfingers 7.12502
rthumb 21.3611 -261.39
lclavicle -5.1684e-015 -3.65764e-014
lhumerus -34.6161 17.685 71.7897
lradius 12.535
lwrist -19.9464
lhand -18.806 -13.8011
lfingers 7.12502
lthumb 7.49242 16.0462
rfemur -11.4193 4.65958 22.8631
rtibia 12.7472
rfoot -25.6043 -4.10178
rtoes -38.0992
lfemur -43.9073 -7.51071 -17.6448
ltibia 13.817
lfoot -3.0092 5.56244
ltoes -32.7798
